<svg xmlns="http://www.w3.org/2000/svg" width="1024" height="1024" viewBox="0 0 1024 1024" fill="none">
  <defs>
    <linearGradient id="moneetize-gradient-stacked-full_color" gradientUnits="userSpaceOnUse" x1="1024" y1="512" x2="0" y2="512">
      <stop stop-color="#0E0F12"/>
      <stop offset="1" stop-color="#FFFFFF"/>
    </linearGradient>
  </defs>  <g transform="translate(297 89.243) scale(5.119)">
    <path d="M42 0C10.6042 0 0 10.6042 0 42C0 73.3958 10.6042 84 42 84C73.3958 84 84 73.3958 84 42C84 10.6042 73.4202 0 42 0Z" fill="#8FF0D6"/>
  </g>
  <g transform="translate(393.621 185.864) scale(5.119)">
    <path d="M18.2658 27.9983C15.5744 25.3069 15.5744 20.9431 18.2658 18.2517L34.4854 2.03219C38.8265 -2.30893 46.2504 0.765467 46.2504 6.90503V39.3433C46.2504 45.4829 38.8273 48.5581 34.4854 44.2161L18.2658 27.9966V27.9983Z" fill="url(#moneetize-gradient-stacked-full_color)"/>
    <path d="M27.9846 27.9983C30.676 25.3069 30.676 20.9431 27.9846 18.2517L11.765 2.03219C7.42308 -2.30893 0 0.765467 0 6.90503V39.3433C0 45.4829 7.42308 48.5581 11.765 44.2161L27.9846 27.9966V27.9983Z" fill="#0E0F12"/>
  </g>  <text x="332.835" y="906.08" fill="#0E0F12" font-family="Segoe UI Black, Arial Black, Arial, sans-serif" font-size="69.932" font-weight="900">moneetize</text>
</svg>